# AST/ASF file generated using VICON BodyLanguage
# -----------------------------------------------
:version 1.10
:name VICON
:units
  mass 1.0
  length 0.45
  angle deg
:documentation
   .ast/.asf automatically generated from VICON data using
   VICON BodyBuilder and BodyLanguage model FoxedUp or BRILLIANT.MOD
:root
   order TX TY TZ RX RY RZ
   axis XYZ
   position 0 0 0  
   orientation 0 0 0 
:bonedata
  begin
     id 1 
     name lhipjoint
     direction 0.621036 -0.695554 0.361275 
     length 2.46325 
     axis 0 0 0  XYZ
  end
  begin
     id 2 
     name lfemur
     direction 0.34202 -0.939693 0  
     length 6.54784  
     axis 0 0 20  XYZ
    dof rx ry rz
    limits (-160.0 20.0)
           (-70.0 70.0)
           (-60.0 70.0)
  end
  begin
     id 3 
     name ltibia
     direction 0.34202 -0.939693 0   
     length 7.84737   
     axis 0 0 20   XYZ
    dof rx
    limits (-10.0 170.0)
  end
  begin
     id 4 
     name lfoot
     direction 0.0790693 -0.217241 0.97291   
     length 2.59747   
     axis -90 7.62852e-016 20   XYZ
    dof rx rz
    limits (-45.0 90.0)
           (-70.0 20.0)
  end
  begin
     id 5 
     name ltoes
     direction 1.53572e-011 -4.21898e-011 1   
     length 1.29919   
     axis -90 7.62852e-016 20   XYZ
    dof rx
    limits (-90.0 20.0)
  end
  begin
     id 6 
     name rhipjoint
     direction -0.602353 -0.708375 0.367935   
     length 2.41867  
     axis 0 0 0  XYZ 
  end
  begin
     id 7 
     name rfemur
     direction -0.34202 -0.939693 0   
     length 6.92065   
     axis 0 0 -20   XYZ
    dof rx ry rz
    limits (-160.0 20.0)
           (-70.0 70.0)
           (-70.0 60.0)
  end
  begin
     id 8 
     name rtibia
     direction -0.34202 -0.939693 0   
     length 7.88883   
     axis 0 0 -20   XYZ
    dof rx
    limits (-10.0 170.0)
 end
 begin
     id 9 
     name rfoot
     direction -0.0768692 -0.211196 0.974416   
     length 2.43714  
     axis -90 -7.62852e-016 -20   XYZ
    dof rx rz
    limits (-45.0 90.0)
           (-20.0 70.0)
  end
  begin
     id 10 
     name rtoes
     direction -1.53575e-011 -4.21933e-011 1   
     length 1.22113   
     axis -90 -7.62852e-016 -20   XYZ
    dof rx
    limits (-90.0 20.0)
  end
  begin
     id 11 
     name lowerback
     direction 0.0197937 0.98943 -0.143655   
     length 2.16931   
     axis 0 0 0   XYZ
    dof rx ry rz
    limits (-20.0 45.0)
           (-30.0 30.0)
           (-30.0 30.0)
  end
  begin
     id 12 
     name upperback
     direction -0.00183968 0.999975 0.00684288   
     length 2.17221   
     axis 0 0 0   XYZ
    dof rx ry rz
    limits (-20.0 45.0)
           (-30.0 30.0)
           (-30.0 30.0)
  end
  begin
     id 13 
     name thorax
     direction -0.00950244 0.997208 0.0740685   
     length 2.22549   
     axis 0 0 0   XYZ
    dof rx ry rz
    limits (-20.0 45.0)
           (-30.0 30.0)
           (-30.0 30.0)
  end
  begin
     id 14 
     name lowerneck
     direction 0.0218238 0.996215 0.0841425   
     length 1.77269   
     axis 0 0 0   XYZ
    dof rx ry rz
    limits (-20.0 45.0)
           (-30.0 30.0)
           (-30.0 30.0)
  end
  begin
     id 15 
     name upperneck
     direction -0.00430652 0.994214 -0.107332   
     length 1.76534   
     axis 0 0 0   XYZ
    dof rx ry rz
    limits (-20.0 45.0)
           (-30.0 30.0)
           (-30.0 30.0)
  end
  begin
     id 16
     name head
     direction -0.00328946 0.998959 -0.0454998  
     length 1.82634  
     axis 0 0 0   XYZ
    dof rx ry rz
    limits (-20.0 45.0)
           (-30.0 30.0)
           (-30.0 30.0)
  end
  begin
     id 17 
     name lclavicle
     direction 0.970962 0.239191 0.00450212  
     length 3.84872  
     axis 0 0 0   XYZ
    dof ry rz
    limits (-20.0 10.0)
           (0.0 20.0)
  end
  begin
     id 18 
     name lhumerus
     direction 1 -4.48966e-011 5.74696e-028   
     length 5.22771   
     axis 180 -30 -90   XYZ
    dof rx ry rz
    limits (-60.0 90.0)
           (-90.0 90.0)
           (-90.0 90.0)
  end
  begin
     id 19
     name lradius
     direction 1 -4.4896e-011 4.25109e-027   
     length 3.45251   
     axis 180 -30 -90   XYZ
    dof rx
    limits (-10.0 170.0)
  end
  begin
     id 20
     name lwrist
     direction 1 -4.48971e-011 1.15382e-027   
     length 1.72626   
     axis -5.52449e-016 90 90   XYZ
    dof ry
    limits (-180.0 0.0)
 end
  begin
     id 21 
     name lhand
     direction 1 -4.49034e-011 2.30765e-027   
     length 0.552119   
     axis -1.47248e-015 90 90   XYZ
    dof rx rz
    limits (-90.0 90.0)
           (-45.0 45.0)
  end
  begin
     id 22 
     name lfingers
     direction 1 -4.48951e-011 4.61529e-027   
     length 0.445133   
     axis -2.94495e-015 90 90   XYZ
    dof rx
    limits (0.0 90.0)
  end
  begin
     id 23
     name lthumb
     direction 0.707107 -6.34991e-011 0.707107   
     length 0.639124   
     axis -90 45 2.85299e-015   XYZ
    dof rx rz
    limits (-45.0 45.0)
           (-45.0 45.0)
  end
  begin
     id 24 
     name rclavicle
     direction -0.97424 0.222511 -0.0366699   
     length 3.73439  
     axis 0 0 0   XYZ 
    dof ry rz
    limits (-10.0 20.0)
           (-20.0 0.0)
  end
  begin
     id 25 
     name rhumerus
     direction -1 -4.48956e-011 -4.97258e-028  
     length 5.2398   
     axis 180 30 90   XYZ
    dof rx ry rz
    limits (-90.0 60.0)
           (-90.0 90.0)
           (-90.0 90.0)
  end
  begin
     id 26 
     name rradius
     direction -1 -4.4897e-011 -1.72611e-027   
     length 3.48042   
     axis 180 30 90   XYZ
    dof rx
    limits (-10.0 170.0)
  end
  begin
     id 27 
     name rwrist
     direction -1 -4.48976e-011 1.15382e-027   
     length 1.74021   
     axis -5.52449e-016 -90 -90   XYZ
    dof ry
    limits (-180.0 0.0)
  end
  begin
     id 28
     name rhand
     direction -1 -4.48963e-011 2.30765e-027   
     length 0.618713   
     axis -1.47248e-015 -90 -90   XYZ
    dof rx rz
    limits (-90.0 90.0)
           (-45.0 45.0)
  end
  begin
     id 29
     name rfingers
     direction -1 -4.4888e-011 4.61529e-027   
     length 0.498823   
     axis -2.94495e-015 -90 -90   XYZ
    dof rx
    limits (0.0 90.0)
  end
  begin
     id 30
     name rthumb
     direction -0.707107 -6.34968e-011 0.707107   
     length 0.716213   
     axis -90 -45 -2.85299e-015   XYZ
    dof rx rz
    limits (-45.0 45.0)
           (-45.0 45.0)
  end
:hierarchy
  begin
    root lhipjoint rhipjoint lowerback
    lhipjoint lfemur
    lfemur ltibia
    ltibia lfoot
    lfoot ltoes
    rhipjoint rfemur
    rfemur rtibia
    rtibia rfoot
    rfoot rtoes
    lowerback upperback
    upperback thorax
    thorax lowerneck lclavicle rclavicle
    lowerneck upperneck
    upperneck head
    lclavicle lhumerus
    lhumerus lradius
    lradius lwrist
    lwrist lhand lthumb
    lhand lfingers
    rclavicle rhumerus
    rhumerus rradius
    rradius rwrist
    rwrist rhand rthumb
    rhand rfingers
  end

#!OML:ASF G:\JayActor3\Patient Classification 1\Patient 1\Session 5\male.ASF
:FULLY-SPECIFIED
:DEGREES
126
root 52.5483 13.9437 -5.69904 13.7662 -85.6488 6.0777
lowerback 26.108 -0.924587 0.958691
upperback 5.1717 -1.36857 -0.553042
thorax -8.77303 -0.830345 -0.692241
lowerneck -5.98451 -0.198049 1.30234
upperneck -14.7936 -0.585728 2.0077
head -3.76796 -0.662659 0.46177
rclavicle -1.41137e-014 -3.57812e-015
rhumerus -17.5657 -0.416596 -87.5192
rradius 45.7387
rwrist -10.1318
rhand -19.3984 -6.96587
rfingers 7.12502
rthumb 6.92062 -36.8327
lclavicle -1.41137e-014 -3.57812e-015
lhumerus -19.0655 -5.25779 84.4383
lradius 46.9282
lwrist 27.4252
lhand -17.9941 13.4623
lfingers 7.12502
lthumb 8.27605 43.2802
rfemur -69.337 -8.63135 22.8815
rtibia 78.6766
rfoot -28.0043 -9.47749
rtoes 0.688271
lfemur -66.6607 6.72377 -21.0194
ltibia 72.6142
lfoot -23.6983 7.39283
ltoes -10.2987
127
root 52.5474 13.9442 -5.7004 13.7374 -85.6482 6.11218
lowerback 26.1091 -0.919804 0.962676
upperback 5.16874 -1.36116 -0.552932
thorax -8.77685 -0.826898 -0.696806
lowerneck -5.98334 -0.141124 1.34024
upperneck -14.8113 -0.51703 1.93332
head -3.77502 -0.627982 0.429868
rclavicle 1.23246e-014 1.74931e-014
rhumerus -17.5731 -0.437308 -87.5233
rradius 45.7335
rwrist -10.1262
rhand -19.3938 -6.9707
rfingers 7.12502
rthumb 6.92502 -36.8374
lclavicle 1.23246e-014 1.74931e-014
lhumerus -19.0538 -5.27201 84.4301
lradius 46.9229
lwrist 27.4211
lhand -17.9831 13.4721
lfingers 7.12502
lthumb 8.28661 43.2896
rfemur -69.3364 -8.6357 22.8903
rtibia 78.6688
rfoot -27.9973 -9.49389
rtoes 0.623495
lfemur -66.6574 6.72044 -21.0148
ltibia 72.6062
lfoot -23.6969 7.40099
ltoes -10.3165
128
root 52.5464 13.945 -5.70188 13.6894 -85.6486 6.16846
lowerback 26.1105 -0.915343 0.961831
upperback 5.16363 -1.35529 -0.552749
thorax -8.78314 -0.82401 -0.697984
lowerneck -5.98446 -0.0862913 1.38165
upperneck -14.8254 -0.451462 1.85799
head -3.78034 -0.594943 0.397038
rclavicle -1.45113e-014 -5.10877e-014
rhumerus -17.5839 -0.450603 -87.5288
rradius 45.7317
rwrist -10.1218
rhand -19.39 -6.97228
rfingers 7.12502
rthumb 6.9287 -36.8389
lclavicle -1.45113e-014 -5.10877e-014
lhumerus -19.0464 -5.28249 84.421
lradius 46.921
lwrist 27.4154
lhand -17.9685 13.474
lfingers 7.12502
lthumb 8.30077 43.2909
rfemur -69.337 -8.63821 22.8954
rtibia 78.6615
rfoot -28.0011 -9.48458
rtoes 0.639002
lfemur -66.6553 6.71896 -21.0125
ltibia 72.5947
lfoot -23.6932 7.40787
ltoes -10.3315
129
root 52.5455 13.9459 -5.70342 13.6533 -85.6492 6.21367
lowerback 26.1107 -0.911813 0.961004
upperback 5.15907 -1.3507 -0.553066
thorax -8.78824 -0.821731 -0.699333
lowerneck -5.98666 -0.0345431 1.42427
upperneck -14.8398 -0.389828 1.78683
head -3.78546 -0.564137 0.365426
rclavicle 1.07344e-014 2.62396e-014
rhumerus -17.5936 -0.45652 -87.5363
rradius 45.7328
rwrist -10.1222
rhand -19.3883 -6.96836
rfingers 7.12502
rthumb 6.93031 -36.8349
lclavicle 1.07344e-014 2.62396e-014
lhumerus -19.0399 -5.29091 84.4097
lradius 46.922
lwrist 27.4102
lhand -17.9549 13.4716
lfingers 7.12502
lthumb 8.31391 43.288
rfemur -69.338 -8.64083 22.9008
rtibia 78.6554
rfoot -28.012 -9.45826
rtoes 0.705475
lfemur -66.6529 6.71955 -21.0096
ltibia 72.5811
lfoot -23.6893 7.41036
ltoes -10.3371
130
root 52.5447 13.9468 -5.70507 13.5969 -85.6485 6.28165
lowerback 26.1083 -0.908996 0.957161
upperback 5.1535 -1.3477 -0.553167
thorax -8.79312 -0.820083 -0.698217
lowerneck -5.98436 0.012043 1.46535
upperneck -14.8551 -0.334391 1.72179
head -3.79163 -0.536586 0.336202
rclavicle 5.96354e-016 2.82274e-014
rhumerus -17.6047 -0.458903 -87.5447
rradius 45.7365
rwrist -10.1223
rhand -19.3848 -6.96044
rfingers 7.12502
rthumb 6.9337 -36.8269
lclavicle 5.96354e-016 2.82274e-014
lhumerus -19.0385 -5.29732 84.3981
lradius 46.9288
lwrist 27.4058
lhand -17.9458 13.4649
lfingers 7.12502
lthumb 8.32265 43.2809
rfemur -69.3422 -8.64505 22.9042
rtibia 78.6519
rfoot -28.0286 -9.41628
rtoes 0.813593
lfemur -66.6538 6.72229 -21.01
ltibia 72.5668
lfoot -23.6849 7.40941
ltoes -10.3397
131
root 52.5437 13.9478 -5.70676 13.5497 -85.6495 6.33784
lowerback 26.107 -0.906217 0.95197
upperback 5.14893 -1.34522 -0.553423
thorax -8.79746 -0.818678 -0.696317
lowerneck -5.97686 0.0535956 1.50584
upperneck -14.8716 -0.284998 1.66265
head -3.79915 -0.512265 0.309133
rclavicle 1.96797e-014 1.53064e-014
rhumerus -17.6142 -0.456753 -87.5548
rradius 45.7412
rwrist -10.1237
rhand -19.3807 -6.95159
rfingers 7.12502
rthumb 6.93765 -36.8179
lclavicle 1.96797e-014 1.53064e-014
lhumerus -19.0381 -5.30163 84.3853
lradius 46.9372
lwrist 27.4056
lhand -17.9423 13.4484
lfingers 7.12502
lthumb 8.32598 43.2643
rfemur -69.3422 -8.64769 22.9065
rtibia 78.6497
rfoot -28.0503 -9.36144
rtoes 0.954889
lfemur -66.6507 6.72931 -21.0102
ltibia 72.5528
lfoot -23.6817 7.40643
ltoes -10.3465
132
root 52.5425 13.9487 -5.70845 13.485 -85.6518 6.40813
lowerback 26.1064 -0.902316 0.944935
upperback 5.14608 -1.342 -0.554335
thorax -8.80015 -0.816933 -0.69433
lowerneck -5.97116 0.0871197 1.5458
upperneck -14.8814 -0.245971 1.60806
head -3.80383 -0.493057 0.283737
rclavicle -1.19271e-015 1.61016e-014
rhumerus -17.6225 -0.45442 -87.565
rradius 45.7467
rwrist -10.1245
rhand -19.3773 -6.94391
rfingers 7.12502
rthumb 6.94097 -36.8101
lclavicle -1.19271e-015 1.61016e-014
lhumerus -19.0384 -5.30879 84.3722
lradius 46.9481
lwrist 27.4099
lhand -17.9486 13.4367
lfingers 7.12502
lthumb 8.31995 43.2528
rfemur -69.3392 -8.64982 22.9073
rtibia 78.6486
rfoot -28.0679 -9.31613
rtoes 1.06415
lfemur -66.6439 6.73993 -21.0123
ltibia 72.541
lfoot -23.6817 7.39912
ltoes -10.344
133
root 52.5412 13.9494 -5.71015 13.4232 -85.6529 6.47467
lowerback 26.1058 -0.898291 0.940356
upperback 5.14373 -1.33809 -0.55625
thorax -8.80237 -0.814951 -0.695095
lowerneck -5.96798 0.110703 1.57789
upperneck -14.8819 -0.218811 1.56591
head -3.80469 -0.47953 0.263892
rclavicle 3.37934e-015 -7.55382e-015
rhumerus -17.6292 -0.456071 -87.5756
rradius 45.7512
rwrist -10.1259
rhand -19.3753 -6.93481
rfingers 7.12502
rthumb 6.94284 -36.801
lclavicle 3.37934e-015 -7.55382e-015
lhumerus -19.0391 -5.32022 84.3587
lradius 46.9592
lwrist 27.4185
lhand -17.96 13.4196
lfingers 7.12502
lthumb 8.3089 43.2362
rfemur -69.3373 -8.65305 22.9103
rtibia 78.647
rfoot -28.0746 -9.29487
rtoes 1.10947
lfemur -66.638 6.75061 -21.0143
ltibia 72.5313
lfoot -23.683 7.39189
ltoes -10.3444
134
root 52.5397 13.9495 -5.71179 13.3491 -85.6542 6.55121
lowerback 26.1073 -0.894345 0.935002
upperback 5.14193 -1.33459 -0.55853
thorax -8.80502 -0.813167 -0.695661
lowerneck -5.96735 0.128889 1.60469
upperneck -14.8757 -0.198043 1.5309
head -3.80261 -0.468976 0.247352
rclavicle -7.7526e-015 -7.55382e-015
rhumerus -17.6351 -0.456806 -87.5858
rradius 45.7567
rwrist -10.1276
rhand -19.3719 -6.92813
rfingers 7.12502
rthumb 6.94616 -36.7942
lclavicle -7.7526e-015 -7.55382e-015
lhumerus -19.0377 -5.33031 84.3448
lradius 46.9657
lwrist 27.4278
lhand -17.9753 13.4006
lfingers 7.12502
lthumb 8.29419 43.2178
rfemur -69.3356 -8.65675 22.9137
rtibia 78.646
rfoot -28.0738 -9.29414
rtoes 1.09978
lfemur -66.6315 6.76212 -21.0174
ltibia 72.5253
lfoot -23.6859 7.38345
ltoes -10.3451
135
root 52.5382 13.95 -5.71343 13.2835 -85.6544 6.6191
lowerback 26.1089 -0.890855 0.93202
upperback 5.14107 -1.33111 -0.560957
thorax -8.80673 -0.811475 -0.69775
lowerneck -5.9758 0.140275 1.62012
upperneck -14.8589 -0.185162 1.50748
head -3.79504 -0.461909 0.236616
rclavicle -2.18663e-014 -4.92986e-014
rhumerus -17.6393 -0.457541 -87.5942
rradius 45.7638
rwrist -10.1325
rhand -19.368 -6.92173
rfingers 7.12502
rthumb 6.94993 -36.7876
lclavicle -2.18663e-014 -4.92986e-014
lhumerus -19.0342 -5.34102 84.331
lradius 46.9707
lwrist 27.4363
lhand -17.9893 13.3868
lfingers 7.12502
lthumb 8.28063 43.2045
rfemur -69.3328 -8.66162 22.9201
rtibia 78.6409
rfoot -28.0634 -9.31858
rtoes 1.02154
lfemur -66.6236 6.77166 -21.0195
ltibia 72.5181
lfoot -23.6887 7.37769
ltoes -10.3494
136
root 52.5367 13.9503 -5.71504 13.2058 -85.6528 6.70187
lowerback 26.1066 -0.889224 0.928406
upperback 5.14077 -1.33016 -0.563143
thorax -8.80588 -0.810935 -0.698443
lowerneck -5.98216 0.148011 1.62927
upperneck -14.8444 -0.176387 1.49064
head -3.78867 -0.45688 0.229224
rclavicle 1.21259e-014 2.48481e-014
rhumerus -17.6422 -0.457563 -87.6028
rradius 45.7742
rwrist -10.1381
rhand -19.3665 -6.91435
rfingers 7.12502
rthumb 6.95137 -36.7802
lclavicle 1.21259e-014 2.48481e-014
lhumerus -19.0265 -5.34664 84.3166
lradius 46.9721
lwrist 27.4414
lhand -18.0023 13.3817
lfingers 7.12502
lthumb 8.26807 43.1999
rfemur -69.3337 -8.66732 22.9261
rtibia 78.6345
rfoot -28.0494 -9.35302
rtoes 0.921793
lfemur -66.6187 6.77592 -21.0216
ltibia 72.5106
lfoot -23.6901 7.37557
ltoes -10.3552
137
root 52.5352 13.951 -5.71655 13.1479 -85.6509 6.76443
lowerback 26.1039 -0.889537 0.926574
upperback 5.14214 -1.33131 -0.565076
thorax -8.80299 -0.811456 -0.699209
lowerneck -5.99123 0.153893 1.63294
upperneck -14.8308 -0.169541 1.48015
head -3.78212 -0.452842 0.224906
rclavicle -3.37934e-015 1.98785e-015
rhumerus -17.6429 -0.452915 -87.6114
rradius 45.7892
rwrist -10.1464
rhand -19.3684 -6.90925
rfingers 7.12502
rthumb 6.94957 -36.7752
lclavicle -3.37934e-015 1.98785e-015
lhumerus -19.0147 -5.34678 84.3008
lradius 46.9706
lwrist 27.4419
lhand -18.0112 13.3878
lfingers 7.12502
lthumb 8.2595 43.2063
rfemur -69.3312 -8.67249 22.9321
rtibia 78.6261
rfoot -28.0406 -9.3767
rtoes 0.853091
lfemur -66.611 6.77526 -21.0199
ltibia 72.5006
lfoot -23.6917 7.37684
ltoes -10.3592
